<?xml version="1.0" encoding="UTF-8" standalone="no"?>
<!-- Created with Inkscape (http://www.inkscape.org/) -->

<svg
   xmlns:dc="http://purl.org/dc/elements/1.1/"
   xmlns:cc="http://creativecommons.org/ns#"
   xmlns:rdf="http://www.w3.org/1999/02/22-rdf-syntax-ns#"
   xmlns:svg="http://www.w3.org/2000/svg"
   xmlns="http://www.w3.org/2000/svg"
   xmlns:sodipodi="http://sodipodi.sourceforge.net/DTD/sodipodi-0.dtd"
   xmlns:inkscape="http://www.inkscape.org/namespaces/inkscape"
   version="1.1"
   id="svg83"
   width="180.04396"
   height="180.04396"
   viewBox="0 0 180.04396 180.04396"
   sodipodi:docname="instagram.svg"
   inkscape:version="0.92.3 (2405546, 2018-03-11)">
  <metadata
     id="metadata89">
    <rdf:RDF>
      <cc:Work
         rdf:about="">
        <dc:format>image/svg+xml</dc:format>
        <dc:type
           rdf:resource="http://purl.org/dc/dcmitype/StillImage" />
        <dc:title></dc:title>
      </cc:Work>
    </rdf:RDF>
  </metadata>
  <defs
     id="defs87" />
  <sodipodi:namedview
     pagecolor="#ffffff"
     bordercolor="#666666"
     borderopacity="1"
     objecttolerance="10"
     gridtolerance="10"
     guidetolerance="10"
     inkscape:pageopacity="0"
     inkscape:pageshadow="2"
     inkscape:window-width="1366"
     inkscape:window-height="743"
     id="namedview85"
     showgrid="false"
     inkscape:zoom="1.082002"
     inkscape:cx="-38.272077"
     inkscape:cy="105.73801"
     inkscape:window-x="0"
     inkscape:window-y="0"
     inkscape:window-maximized="1"
     inkscape:current-layer="svg83" />
  <path
     style="fill:#000000;stroke-width:0.35164836"
     d="M 44.036851,179.6422 C 33.109521,178.3447 22.830041,173.41395 15.028471,165.72778 7.6549413,158.46331 3.3290513,150.51306 0.98961129,139.92671 l -0.81379,-3.6825 V 90.002452 43.760693 l 0.81379,-3.682504 C 3.3290513,29.491848 7.6549413,21.541588 15.028471,14.277124 21.865021,7.5416956 30.091681,3.1731749 40.087911,0.97006065 l 3.69231,-0.8137645 h 46.24176 46.241759 l 3.69231,0.8137645 c 10.19506,2.24693685 18.30942,6.61116895 25.39106,13.65634235 7.00833,6.97224 11.45609,15.227714 13.70726,25.441982 l 0.81377,3.692308 v 46.241759 46.241758 l -0.81377,3.69231 c -4.44204,20.15497 -18.72973,34.50107 -38.9225,39.08161 l -3.51648,0.79768 -45.010989,0.065 c -24.75605,0.0357 -46.16144,-0.0716 -47.56755,-0.23859 z m 89.332059,-15.8016 c 5.67438,-0.5381 11.47709,-2.60557 16.08164,-5.7298 2.32761,-1.57931 6.53993,-5.73617 8.26106,-8.1523 3.44141,-4.83107 5.57926,-10.60607 6.14852,-16.60912 0.4833,-5.0966 0.4833,-81.597253 0,-86.693855 -0.5381,-5.674384 -2.60557,-11.477092 -5.7298,-16.081646 -1.57931,-2.327605 -5.73617,-6.539925 -8.1523,-8.261058 -4.83107,-3.441413 -10.60607,-5.579254 -16.60912,-6.148517 -5.0966,-0.483305 -81.597259,-0.483305 -86.693859,0 -6.00305,0.569263 -11.77805,2.707104 -16.60912,6.148517 -2.41613,1.721133 -6.573,5.933453 -8.1523,8.261058 -3.12423,4.604554 -5.1917,10.407262 -5.7298,16.081646 -0.4833,5.096602 -0.4833,81.597255 0,86.693855 0.56926,6.00305 2.7071,11.77805 6.14852,16.60912 1.72113,2.41613 5.93345,6.57299 8.26106,8.1523 4.35546,2.95522 10.50019,5.22448 15.4407,5.70226 4.50168,0.43536 82.774029,0.46003 87.334799,0.0275 z M 86.153851,136.20465 c -3.89567,-0.48126 -6.19197,-0.92421 -8.99396,-1.73491 -17.13629,-4.95808 -29.97042,-19.46985 -32.92737,-37.231571 -0.53317,-3.202578 -0.53317,-11.268856 0,-14.471434 3.29689,-19.80364 18.7501,-35.256852 38.55374,-38.553745 3.20258,-0.533162 11.26886,-0.533162 14.47144,0 19.786039,3.293964 35.259779,18.767705 38.553739,38.553745 0.53316,3.202578 0.53316,11.268856 0,14.471434 -3.26562,19.615801 -18.82754,35.302781 -38.170009,38.476771 -2.49194,0.40892 -9.66601,0.71474 -11.48758,0.48971 z m 7.69749,-16.11895 c 6.891409,-0.5908 14.946059,-5.0331 19.638109,-10.8308 12.16616,-15.033023 7.64927,-37.099186 -9.44026,-46.118013 -5.281119,-2.78706 -10.799519,-3.863891 -17.010459,-3.319329 -10.01769,0.878333 -19.23791,7.14751 -23.97847,16.303867 -2.70221,5.219302 -3.75926,10.750003 -3.22318,16.864271 1.23695,14.107814 13.01827,25.922444 27.14623,27.222964 1.57457,0.14495 3.25845,0.21992 3.74197,0.1666 0.48351,-0.0533 1.89024,-0.18361 3.12606,-0.28956 z M 134.30171,52.607177 c -2.57505,-1.059344 -4.27791,-2.391778 -5.59182,-4.37543 -1.40421,-2.119965 -1.90466,-3.944535 -1.87856,-6.848939 0.0174,-1.932396 0.23009,-2.801846 1.13542,-4.64083 4.2968,-8.728042 16.50859,-8.745048 20.7995,-0.02898 1.80867,3.673927 1.52786,8.111684 -0.72888,11.518734 -2.05533,3.102991 -5.93306,5.182583 -9.66374,5.182583 -1.39609,0 -2.77367,-0.273069 -4.07192,-0.807152 z"
     id="path93"
     inkscape:connector-curvature="0" />
</svg>
