<?xml version="1.0" encoding="UTF-8" standalone="no"?>
<svg
   xmlns:dc="http://purl.org/dc/elements/1.1/"
   xmlns:cc="http://creativecommons.org/ns#"
   xmlns:rdf="http://www.w3.org/1999/02/22-rdf-syntax-ns#"
   xmlns:svg="http://www.w3.org/2000/svg"
   xmlns="http://www.w3.org/2000/svg"
   xmlns:sodipodi="http://sodipodi.sourceforge.net/DTD/sodipodi-0.dtd"
   xmlns:inkscape="http://www.inkscape.org/namespaces/inkscape"
   version="1.1"
   viewBox="0 0 420 114"
   class="main"
   id="svg1107"
   sodipodi:docname="codecompany-light.svg"
   inkscape:version="0.92.3 (2405546, 2018-03-11)"
   inkscape:export-filename="/home/mateus/Downloads/codecompany/logo5.png"
   inkscape:export-xdpi="719.79999"
   inkscape:export-ydpi="719.79999"
   width="420"
   height="114">
  <metadata
     id="metadata1113">
    <rdf:RDF>
      <cc:Work
         rdf:about="">
        <dc:format>image/svg+xml</dc:format>
        <dc:type
           rdf:resource="http://purl.org/dc/dcmitype/StillImage" />
        <dc:title></dc:title>
      </cc:Work>
    </rdf:RDF>
  </metadata>
  <defs
     id="defs1111" />
  <sodipodi:namedview
     pagecolor="#ffffff"
     bordercolor="#666666"
     borderopacity="1"
     objecttolerance="10"
     gridtolerance="10"
     guidetolerance="10"
     inkscape:pageopacity="0"
     inkscape:pageshadow="2"
     inkscape:window-width="1366"
     inkscape:window-height="743"
     id="namedview1109"
     showgrid="false"
     inkscape:zoom="0.70710678"
     inkscape:cx="327.71516"
     inkscape:cy="200.22244"
     inkscape:window-x="0"
     inkscape:window-y="0"
     inkscape:window-maximized="1"
     inkscape:current-layer="svg1107" />
  <g
     id="g844"
     transform="translate(-64.999991,-177.81276)">
    <path
       d="m 234.45381,263.0577 v 0 c 0.17234,-0.19389 0.32314,-0.36623 0.4524,-0.51703 0.28006,-0.34469 0.54934,-0.61936 0.80786,-0.82402 0.25852,-0.20466 0.56012,-0.30699 0.9048,-0.30699 0.49549,0 0.89942,0.17234 1.21179,0.51703 0.31237,0.34469 0.40393,0.88326 0.27467,1.61572 -1.09869,4.37322 -3.31761,7.80393 -6.65677,10.29214 -3.33916,2.48821 -7.19534,3.71077 -11.56856,3.66768 -5.23493,-0.21543 -9.55968,-1.60495 -12.97423,-4.16856 -3.41456,-2.56361 -5.90815,-5.79505 -7.48078,-9.69432 -1.57263,-3.89927 -2.19738,-7.94396 -1.87424,-12.13406 0.32314,-4.1901 1.61572,-8.01936 3.87773,-11.48777 2.26201,-3.46841 5.55207,-5.96386 9.75895,-7.75546 4.61913,-1.96717 10.10857,-2.70475 15.76943,-0.93712 1.7404,0.54345 6.29365,4.42168 7.7478,5.41265 1.45415,0.99098 0.92802,11.04018 1.35888,12.44047 -8.87041,-10.36079 -24.9499,-12.48876 -25.07,3.31281 0.12926,3.31761 1.02329,6.11819 2.6821,8.40175 1.65881,2.28355 3.73231,3.94774 6.22052,4.99258 2.48821,1.04483 5.03566,1.3572 7.64236,0.93712 2.6067,-0.42009 4.91179,-1.67496 6.91528,-3.76463 z"
       data-paper-data="{&quot;glyphName&quot;:&quot;C&quot;,&quot;glyphIndex&quot;:0,&quot;firstGlyphOfWord&quot;:true,&quot;word&quot;:1,&quot;line&quot;:1,&quot;firstGlyphOfFirstLine&quot;:true}"
       id="path1069-6"
       inkscape:connector-curvature="0"
       style="font-family:none;mix-blend-mode:normal;fill:#f0effe;fill-opacity:1;fill-rule:nonzero;stroke:none;stroke-width:1;stroke-linecap:butt;stroke-linejoin:miter;stroke-miterlimit:10;stroke-dasharray:none;stroke-dashoffset:0"
       sodipodi:nodetypes="cccssscsccssssscccccccc" />
    <path
       d="m 257.68789,225.47045 v 0 0 c -3.01601,0 -5.75735,-0.73246 -8.22402,-2.19738 -2.46667,-1.46492 -4.43784,-3.4361 -5.91354,-5.91354 -1.47569,-2.47744 -2.21354,-5.22416 -2.21354,-8.24017 0,-2.99447 0.73785,-5.73042 2.21354,-8.20786 1.47569,-2.47744 3.44687,-4.44862 5.91354,-5.91354 2.46667,-1.46492 5.208,-2.19738 8.22402,-2.19738 3.01601,0 5.75735,0.73246 8.22402,2.19738 2.46667,1.46492 4.43784,3.4361 5.91354,5.91354 1.47569,2.47744 2.21354,5.21339 2.21354,8.20786 0,3.01601 -0.73785,5.76274 -2.21354,8.24017 -1.47569,2.47744 -3.44687,4.44862 -5.91354,5.91354 -2.46667,1.46492 -5.208,2.19738 -8.22402,2.19738 z m 0,-4.29781 v 0 c 0.68937,0 1.27642,-1.23872 1.76114,-3.71616 0.48472,-2.47744 0.72707,-5.25648 0.72707,-8.33712 0,-3.08064 -0.24236,-5.80582 -0.72707,-8.17554 -0.48472,-2.36972 -1.07176,-3.55458 -1.76114,-3.55458 -0.68937,0 -1.27642,1.18486 -1.76114,3.55458 -0.48472,2.36972 -0.72707,5.0949 -0.72707,8.17554 0,3.08064 0.24236,5.85968 0.72707,8.33712 0.48472,2.47744 1.07176,3.71616 1.76114,3.71616 z"
       data-paper-data="{&quot;glyphName&quot;:&quot;o&quot;,&quot;glyphIndex&quot;:1,&quot;word&quot;:1,&quot;line&quot;:1}"
       id="path1071"
       inkscape:connector-curvature="0"
       style="font-family:none;mix-blend-mode:normal;fill:#00abd7;fill-opacity:1;fill-rule:nonzero;stroke:none;stroke-width:1;stroke-linecap:butt;stroke-linejoin:miter;stroke-miterlimit:10;stroke-dasharray:none;stroke-dashoffset:0" />
    <path
       d="m 309.87565,184.94819 v 0 0 c 0,-1.48646 -0.38777,-2.6821 -1.16332,-3.5869 -0.77555,-0.9048 -1.76652,-1.55648 -2.97293,-1.95502 -1.2064,-0.39854 -2.48282,-0.59782 -3.82926,-0.59782 -1.34643,0 -2.61747,0.17234 -3.8131,0.51703 -1.19563,0.34469 -2.18122,0.80786 -2.95677,1.38952 -0.77555,0.58166 -1.16332,1.24949 -1.16332,2.00349 0,0.6032 0.0969,1.05022 0.29083,1.34105 0.19389,0.29083 0.42009,0.54396 0.6786,0.75939 0.3016,0.23697 0.57627,0.55473 0.82402,0.95327 0.24774,0.39854 0.37162,1.07176 0.37162,2.01965 v 9.04803 c -1.22795,-2.62824 -3.44687,-3.98544 -6.65677,-4.07161 -2.43435,0.0215 -4.54556,0.7917 -6.33362,2.31048 -1.78806,1.51878 -3.1722,3.48457 -4.1524,5.89738 -0.9802,2.41281 -1.48108,4.99796 -1.50262,7.75546 0,2.67132 0.44163,5.25109 1.32489,7.7393 0.88326,2.48821 2.11659,4.55095 3.7,6.18821 1.58341,1.63726 3.43071,2.56361 5.54192,2.77904 4.07161,0.23697 6.88297,-1.38952 8.43406,-4.87948 0.51703,1.70189 1.51878,2.93523 3.00524,3.7 1.48646,0.76477 3.33916,1.1687 5.55808,1.21179 2.00349,0.0215 3.58151,-0.31237 4.73406,-1.00175 1.15255,-0.68937 1.97656,-1.49723 2.47205,-2.42358 0.49549,-0.92635 0.72707,-1.71805 0.69476,-2.37511 -0.0323,-0.65706 -0.24236,-0.9425 -0.63013,-0.85633 -0.73246,0.25852 -1.32489,0.28006 -1.77729,0.0646 -0.4524,-0.21543 -0.6786,-0.65706 -0.6786,-1.32489 z m -13.73362,19.38864 v 0 9.56506 c 0,1.12023 -0.24774,1.94425 -0.74323,2.47205 -0.49549,0.5278 -1.0556,0.72707 -1.68035,0.59782 -0.79709,-0.25852 -1.41645,-1.18486 -1.85808,-2.77904 -0.44163,-1.59418 -0.6786,-3.3984 -0.71092,-5.41266 -0.0323,-2.01426 0.17773,-3.76463 0.63013,-5.25109 0.4524,-1.48646 1.19563,-2.24047 2.22969,-2.26201 0.58166,0.0215 1.08253,0.28544 1.50262,0.7917 0.42009,0.50626 0.63013,1.26565 0.63013,2.27817 z"
       data-paper-data="{&quot;glyphName&quot;:&quot;d&quot;,&quot;glyphIndex&quot;:2,&quot;word&quot;:1,&quot;line&quot;:1}"
       id="path1073"
       inkscape:connector-curvature="0"
       style="font-family:none;mix-blend-mode:normal;fill:#00abd7;fill-opacity:1;fill-rule:nonzero;stroke:none;stroke-width:1;stroke-linecap:butt;stroke-linejoin:miter;stroke-miterlimit:10;stroke-dasharray:none;stroke-dashoffset:0" />
    <path
       d="m 327.58395,206.79273 v 0 0 c 1.52955,0 2.62824,-0.46317 3.29607,-1.38952 0.66783,-0.92635 1.01252,-2.01426 1.03406,-3.26375 0.0215,-1.24949 -0.1885,-2.36434 -0.63013,-3.34454 -0.44163,-0.9802 -0.99636,-1.47031 -1.66419,-1.47031 -0.68937,0 -1.19025,0.42547 -1.50262,1.27642 -0.31237,0.85095 -0.51164,1.80422 -0.59782,2.85982 -0.21543,2.00349 -0.19389,3.78079 0.0646,5.33188 z m 2.81135,-13.99214 v 0 c 2.71441,0.0862 5.08413,0.65706 7.10917,1.71266 2.02504,1.0556 3.61383,2.36434 4.76637,3.9262 1.15255,1.56186 1.79345,3.13988 1.92271,4.73406 0.10771,2.56361 -0.72707,4.5671 -2.50437,6.01048 -1.77729,1.44338 -3.8885,2.33202 -6.33362,2.66594 -2.44512,0.33392 -4.61557,0.10233 -6.51135,-0.69476 0.56012,1.09869 1.33566,2.02504 2.32664,2.77904 0.99098,0.754 2.21892,1.23872 3.68384,1.45415 1.46492,0.21543 2.92984,0.0215 4.39476,-0.58166 1.46492,-0.6032 2.77904,-1.65881 3.94236,-3.16681 0.28006,-0.34469 0.61936,-0.61936 1.0179,-0.82402 0.39854,-0.20466 0.78093,-0.17773 1.14716,0.0808 0.6032,0.51703 0.84017,1.2064 0.71092,2.06812 -0.6032,2.41281 -1.66419,4.55633 -3.18297,6.43057 -1.51878,1.87424 -3.37686,3.35531 -5.57423,4.44323 -2.19738,1.08792 -4.57787,1.63188 -7.14148,1.63188 -3.01601,0 -5.75196,-0.73246 -8.20786,-2.19738 -2.45589,-1.46492 -4.41092,-3.42533 -5.86506,-5.88122 -1.45415,-2.45589 -2.21354,-5.21339 -2.27817,-8.27249 0,-3.94236 0.80786,-7.13071 2.42358,-9.56506 1.61572,-2.43435 3.68923,-4.1901 6.22052,-5.26725 2.53129,-1.07715 5.17569,-1.57263 7.93319,-1.48646 z"
       data-paper-data="{&quot;glyphName&quot;:&quot;e&quot;,&quot;glyphIndex&quot;:3,&quot;lastGlyphOfWord&quot;:true,&quot;word&quot;:1,&quot;line&quot;:1,&quot;lastGlyphOfFirstLine&quot;:true}"
       id="path1075"
       inkscape:connector-curvature="0"
       style="font-family:none;mix-blend-mode:normal;fill:#00abd7;fill-opacity:1;fill-rule:nonzero;stroke:none;stroke-width:1;stroke-linecap:butt;stroke-linejoin:miter;stroke-miterlimit:10;stroke-dasharray:none;stroke-dashoffset:0" />
    <path
       d="m 257.68789,277.50226 v 0 0 c -3.01601,0 -5.75735,-0.73246 -8.22402,-2.19738 -2.46667,-1.46492 -4.43784,-3.4361 -5.91354,-5.91354 -1.47569,-2.47744 -2.21354,-5.22416 -2.21354,-8.24017 0,-2.99447 0.73785,-5.73042 2.21354,-8.20786 1.47569,-2.47744 3.44687,-4.44862 5.91354,-5.91354 2.46667,-1.46492 5.208,-2.19738 8.22402,-2.19738 3.01601,0 5.75735,0.73246 8.22402,2.19738 2.46667,1.46492 4.43784,3.4361 5.91354,5.91354 1.47569,2.47744 2.21354,5.21339 2.21354,8.20786 0,3.01601 -0.73785,5.76274 -2.21354,8.24017 -1.47569,2.47744 -3.44687,4.44862 -5.91354,5.91354 -2.46667,1.46492 -5.208,2.19738 -8.22402,2.19738 z m 0,-4.29781 v 0 c 0.68937,0 1.27642,-1.23872 1.76114,-3.71616 0.48472,-2.47744 0.72707,-5.25648 0.72707,-8.33712 0,-3.08064 -0.24236,-5.80582 -0.72707,-8.17554 -0.48472,-2.36972 -1.07176,-3.55458 -1.76114,-3.55458 -0.68937,0 -1.27642,1.18486 -1.76114,3.55458 -0.48472,2.36972 -0.72707,5.0949 -0.72707,8.17554 0,3.08064 0.24236,5.85968 0.72707,8.33712 0.48472,2.47744 1.07176,3.71616 1.76114,3.71616 z"
       data-paper-data="{&quot;glyphName&quot;:&quot;o&quot;,&quot;glyphIndex&quot;:5,&quot;word&quot;:2,&quot;line&quot;:2}"
       id="path1079"
       inkscape:connector-curvature="0"
       style="font-family:none;mix-blend-mode:normal;fill:#f0effe;fill-rule:nonzero;stroke:none;stroke-width:1;stroke-linecap:butt;stroke-linejoin:miter;stroke-miterlimit:10;stroke-dasharray:none;stroke-dashoffset:0" />
    <path
       d="m 298.14552,270.29615 v 0 -13.0227 c 0,-1.27103 -0.23697,-2.23508 -0.71092,-2.89214 -0.47394,-0.65706 -1.0179,-1.0179 -1.63188,-1.08253 -0.61397,-0.0646 -1.15793,0.16157 -1.63188,0.6786 -0.47394,0.51703 -0.71092,1.31412 -0.71092,2.39127 0,1.55109 0,3.10218 0,4.65327 -0.0215,3.08064 -0.0215,6.17205 0,9.27423 0,0.0646 0,0.12926 0,0.19389 -0.0215,0.40932 0.005,0.82402 0.0808,1.2441 0.0754,0.42009 0.27467,0.82402 0.59782,1.21179 0.38777,0.43086 0.65706,1.00175 0.80786,1.71266 0.1508,0.71092 0.1508,1.36259 0,1.95502 -0.1508,0.59243 -0.47394,0.88865 -0.96943,0.88865 h -15.34934 c -0.49549,0 -0.82402,-0.30699 -0.98559,-0.92096 -0.16157,-0.61397 -0.17234,-1.27642 -0.0323,-1.98734 0.14003,-0.71092 0.42547,-1.26026 0.85633,-1.64803 0.51703,-0.4524 0.85633,-0.98559 1.0179,-1.59956 0.16157,-0.61397 0.24236,-1.27642 0.24236,-1.98734 v -15.60786 c 0,-0.92635 -0.12387,-1.58879 -0.37162,-1.98734 -0.24774,-0.39854 -0.52242,-0.7163 -0.82402,-0.95327 -0.25852,-0.21543 -0.48472,-0.46856 -0.6786,-0.75939 -0.19389,-0.29083 -0.29083,-0.74862 -0.29083,-1.37336 0,-1.03406 0.7163,-1.90655 2.14891,-2.61747 1.43261,-0.71092 3.11295,-1.12562 5.04105,-1.2441 1.92809,-0.11849 3.70538,0.17234 5.33188,0.87249 1.62649,0.70015 2.68748,1.93348 3.18297,3.7 1.14178,-2.08966 2.9083,-3.47918 5.29956,-4.16856 2.39127,-0.68937 4.78253,-0.53857 7.1738,0.4524 2.39127,0.99098 4.16856,2.92984 5.33188,5.81659 0.0215,-0.34469 0.0646,-0.65706 0.12926,-0.93712 0.71092,-2.13275 2.05196,-3.68923 4.02314,-4.66943 1.97118,-0.9802 4.10932,-1.29796 6.41441,-0.95327 2.30509,0.34469 4.29243,1.44876 5.96201,3.31223 1.66958,1.86346 2.54745,4.58326 2.63362,8.15939 0,1.70189 0,3.19913 0,4.4917 0,1.29258 0,2.52052 0,3.68384 0,1.42183 0,3.09141 0,5.00873 0,0.66783 0.23159,1.10946 0.69476,1.32489 0.46317,0.21543 1.06099,0.19389 1.79345,-0.0646 0.38777,-0.0862 0.59243,0.19927 0.61397,0.85633 0.0215,0.65706 -0.21004,1.44876 -0.69476,2.37511 -0.48472,0.92635 -1.30873,1.73421 -2.47205,2.42358 -1.16332,0.68937 -2.73595,1.02329 -4.7179,1.00175 -2.7575,-0.0431 -4.92795,-0.64629 -6.51135,-1.80961 -1.58341,-1.16332 -2.38588,-3.08064 -2.40742,-5.75196 v -12.66725 c 0,-1.22795 -0.23697,-2.17584 -0.71092,-2.84367 -0.47394,-0.66783 -1.0179,-1.03945 -1.63188,-1.11485 -0.61397,-0.0754 -1.15793,0.1508 -1.63188,0.6786 -0.47394,0.5278 -0.71092,1.37336 -0.71092,2.53668 0,4.2655 0,8.54177 0,12.82882 0,0.71092 0.0808,1.37336 0.24236,1.98734 0.16157,0.61397 0.50087,1.14716 1.0179,1.59956 0.43086,0.38777 0.72169,0.93712 0.87249,1.64803 0.1508,0.71092 0.14003,1.37336 -0.0323,1.98734 -0.17234,0.61397 -0.50626,0.92096 -1.00175,0.92096 h -15.34934 c -0.49549,0 -0.81863,-0.29622 -0.96943,-0.88865 -0.1508,-0.59243 -0.1508,-1.2441 0,-1.95502 0.1508,-0.71092 0.42009,-1.2818 0.80786,-1.71266 0.34469,-0.38777 0.55473,-0.7917 0.63013,-1.21179 0.0754,-0.42009 0.10233,-0.83479 0.0808,-1.2441 0,-0.0646 0,-0.12926 0,-0.19389 z"
       data-paper-data="{&quot;glyphName&quot;:&quot;m&quot;,&quot;glyphIndex&quot;:6,&quot;word&quot;:2,&quot;line&quot;:2}"
       id="path1081"
       inkscape:connector-curvature="0"
       style="font-family:none;mix-blend-mode:normal;fill:#f0effe;fill-rule:nonzero;stroke:none;stroke-width:1;stroke-linecap:butt;stroke-linejoin:miter;stroke-miterlimit:10;stroke-dasharray:none;stroke-dashoffset:0" />
    <path
       d="m 352.88612,256.36864 v 0 0 c 0,-1.01252 0.21543,-1.77191 0.64629,-2.27817 0.43086,-0.50626 0.93712,-0.77016 1.51878,-0.7917 1.01252,0.0215 1.75036,0.77555 2.21354,2.26201 0.46317,1.48646 0.6786,3.23683 0.64629,5.25109 -0.0323,2.01426 -0.27467,3.81849 -0.72707,5.41266 -0.4524,1.59418 -1.06638,2.52052 -1.84192,2.77904 -0.62475,0.12926 -1.19025,-0.07 -1.69651,-0.59782 -0.50626,-0.5278 -0.75939,-1.35182 -0.75939,-2.47205 z m 0,16.99738 v 0 c 1.65881,2.97293 4.35167,4.3409 8.0786,4.10393 2.13275,-0.21543 3.98544,-1.14178 5.55808,-2.77904 1.57263,-1.63726 2.80058,-3.7 3.68384,-6.18821 0.88326,-2.48821 1.32489,-5.06798 1.32489,-7.7393 0,-2.7575 -0.45779,-5.34265 -1.37336,-7.75546 -0.91557,-2.41281 -2.22969,-4.3786 -3.94236,-5.89738 -1.71266,-1.51878 -3.78617,-2.28894 -6.22052,-2.31048 -3.48996,0.0862 -5.92431,1.60495 -7.30306,4.55633 -0.51703,-1.74498 -1.58341,-2.96754 -3.19913,-3.66768 -1.61572,-0.70015 -3.38224,-0.99098 -5.29956,-0.87249 -1.91732,0.11849 -3.59228,0.53319 -5.02489,1.2441 -1.43261,0.71092 -2.14891,1.58341 -2.14891,2.61747 0,0.62475 0.0969,1.08253 0.29083,1.37336 0.19389,0.29083 0.42009,0.54396 0.6786,0.75939 0.3016,0.23697 0.57627,0.55473 0.82402,0.95327 0.24774,0.39854 0.37162,1.06099 0.37162,1.98734 v 29.40611 c 0,0.71092 -0.0808,1.37336 -0.24236,1.98734 -0.16157,0.61397 -0.50087,1.14716 -1.0179,1.59956 -0.43086,0.38777 -0.72169,0.93712 -0.87249,1.64803 -0.1508,0.71092 -0.14003,1.37336 0.0323,1.98734 0.17234,0.61397 0.50626,0.92096 1.00175,0.92096 h 15.89869 c 0.51703,0 0.85633,-0.30699 1.0179,-0.92096 0.16157,-0.61397 0.17234,-1.27642 0.0323,-1.98734 -0.14003,-0.71092 -0.42547,-1.26026 -0.85633,-1.64803 -0.51703,-0.4524 -0.86172,-0.98559 -1.03406,-1.59956 -0.17234,-0.61397 -0.25852,-1.27642 -0.25852,-1.98734 z"
       data-paper-data="{&quot;glyphName&quot;:&quot;p&quot;,&quot;glyphIndex&quot;:7,&quot;word&quot;:2,&quot;line&quot;:2}"
       id="path1083"
       inkscape:connector-curvature="0"
       style="font-family:none;mix-blend-mode:normal;fill:#f0effe;fill-rule:nonzero;stroke:none;stroke-width:1;stroke-linecap:butt;stroke-linejoin:miter;stroke-miterlimit:10;stroke-dasharray:none;stroke-dashoffset:0" />
    <path
       d="m 385.91144,257.49964 v 0 0 c -1.61572,1.01252 -3.1722,1.36259 -4.66943,1.05022 -1.49723,-0.31237 -2.71441,-1.04483 -3.65153,-2.19738 -0.93712,-1.15255 -1.34105,-2.49359 -1.21179,-4.02314 0.12926,-1.52955 1.02329,-2.99447 2.6821,-4.39476 1.12023,-0.86172 2.32664,-1.54032 3.61921,-2.03581 2.47744,-0.9048 5.28879,-1.34643 8.43406,-1.32489 1.98195,-0.0215 3.91543,0.20466 5.80044,0.6786 1.88501,0.47394 3.5869,1.2441 5.10568,2.31048 1.51878,1.06638 2.73057,2.46667 3.63537,4.20087 0.9048,1.73421 1.3572,3.87234 1.3572,6.41441 0,1.93886 0,3.74847 0,5.42882 0,1.68035 0,3.6623 0,5.94585 0,0.66783 0.2262,1.10946 0.6786,1.32489 0.4524,0.21543 1.04483,0.19389 1.77729,-0.0646 0.38777,-0.0862 0.59782,0.19927 0.63013,0.85633 0.0323,0.65706 -0.19927,1.44338 -0.69476,2.35895 -0.49549,0.91557 -1.3195,1.72343 -2.47205,2.42358 -1.15255,0.70015 -2.73057,1.03945 -4.73406,1.0179 -2.21892,-0.0646 -4.06623,-0.47933 -5.54192,-1.2441 -1.47569,-0.76477 -2.47205,-1.98734 -2.98908,-3.66768 -0.79709,1.76652 -2.05735,3.05371 -3.78079,3.86157 -1.72343,0.80786 -3.5869,1.1687 -5.59039,1.08253 -3.27453,-0.23697 -5.70349,-1.23333 -7.2869,-2.98908 -1.58341,-1.75575 -2.21354,-3.75386 -1.89039,-5.99432 0.32314,-2.24047 1.73421,-4.22242 4.23319,-5.94585 1.89578,-1.14178 3.86696,-2.08966 5.91354,-2.84367 2.17584,-0.77555 4.0393,-1.70189 5.59039,-2.77904 1.55109,-1.07715 2.36972,-2.67132 2.45589,-4.78253 -0.0862,-1.46492 -0.63013,-2.37511 -1.63188,-2.73057 -1.00175,-0.35546 -1.89039,-0.16696 -2.66594,0.5655 -0.40932,0.53857 -0.59243,1.2818 -0.54934,2.22969 0.0431,0.81863 -0.0754,1.69112 -0.35546,2.61747 -0.28006,0.92635 -1.01252,1.80961 -2.19738,2.64978 z m 7.4,4.07162 v 0 c -0.28006,0.3016 -0.73246,0.6786 -1.3572,1.131 -0.99098,0.71092 -1.89039,1.52416 -2.69825,2.43974 -0.80786,0.91557 -0.9425,1.83654 -0.40393,2.76288 0.53857,0.73246 1.1687,1.07176 1.89039,1.0179 0.72169,-0.0539 1.34643,-0.40393 1.87424,-1.05022 0.5278,-0.64629 0.75939,-1.48646 0.69476,-2.52052 z"
       data-paper-data="{&quot;glyphName&quot;:&quot;a&quot;,&quot;glyphIndex&quot;:8,&quot;word&quot;:2,&quot;line&quot;:2}"
       id="path1085"
       inkscape:connector-curvature="0"
       style="font-family:none;mix-blend-mode:normal;fill:#f0effe;fill-rule:nonzero;stroke:none;stroke-width:1;stroke-linecap:butt;stroke-linejoin:miter;stroke-miterlimit:10;stroke-dasharray:none;stroke-dashoffset:0" />
    <path
       d="m 448.08436,256.40095 v 0 c -0.0646,-3.40378 -0.86172,-6.02664 -2.39127,-7.86856 -1.52955,-1.84192 -3.37686,-2.99447 -5.54192,-3.45764 -2.16507,-0.46317 -4.23857,-0.31776 -6.22052,0.43624 -1.98195,0.754 -3.44687,2.04658 -4.39476,3.87773 -0.51703,-1.76652 -1.58879,-2.99985 -3.21528,-3.7 -1.62649,-0.70015 -3.3984,-0.99098 -5.31572,-0.87249 -1.91732,0.11849 -3.59767,0.53319 -5.04105,1.2441 -1.44338,0.71092 -2.16507,1.58341 -2.16507,2.61747 0,0.62475 0.10233,1.08253 0.30699,1.37336 0.20466,0.29083 0.43624,0.54396 0.69476,0.75939 0.3016,0.23697 0.57627,0.55473 0.82402,0.95327 0.24774,0.39854 0.37162,1.06099 0.37162,1.98734 v 15.60786 c 0,0.71092 -0.0808,1.37336 -0.24236,1.98734 -0.16157,0.61397 -0.50087,1.14716 -1.0179,1.59956 -0.43086,0.38777 -0.72169,0.93712 -0.87249,1.64803 -0.1508,0.71092 -0.14003,1.37336 0.0323,1.98734 0.17234,0.61397 0.50626,0.92096 1.00175,0.92096 h 15.89869 c 0.51703,0 0.85633,-0.30699 1.0179,-0.92096 0.16157,-0.61397 0.16696,-1.27642 0.0162,-1.98734 -0.1508,-0.71092 -0.43086,-1.26026 -0.84017,-1.64803 -0.51703,-0.4524 -0.86172,-0.98559 -1.03406,-1.59956 -0.17234,-0.61397 -0.25852,-1.27642 -0.25852,-1.98734 v -12.99039 c 0,-1.07715 0.23697,-1.87424 0.71092,-2.39127 0.47394,-0.51703 1.0179,-0.74323 1.63188,-0.6786 0.61397,0.0646 1.15793,0.42547 1.63188,1.08253 0.47394,0.65706 0.71092,1.62111 0.71092,2.89214 v 12.66725 c 0.0431,2.67132 0.85633,4.58865 2.43974,5.75196 1.58341,1.16332 3.74309,1.76652 6.47904,1.80961 1.98195,0.0215 3.55458,-0.31237 4.7179,-1.00175 1.16332,-0.68937 1.99272,-1.49723 2.48821,-2.42358 0.49549,-0.92635 0.72707,-1.71805 0.69476,-2.37511 -0.0323,-0.65706 -0.24236,-0.9425 -0.63013,-0.85633 -0.73246,0.25852 -1.33028,0.28006 -1.79345,0.0646 -0.46317,-0.21543 -0.69476,-0.65706 -0.69476,-1.32489 0,-2.80058 0,-5.07336 0,-6.81834 0,-1.74498 0,-3.86696 0,-6.36594 z"
       data-paper-data="{&quot;glyphName&quot;:&quot;n&quot;,&quot;glyphIndex&quot;:9,&quot;word&quot;:2,&quot;line&quot;:2}"
       id="path1087"
       inkscape:connector-curvature="0"
       style="font-family:none;mix-blend-mode:normal;fill:#f0effe;fill-rule:nonzero;stroke:none;stroke-width:1;stroke-linecap:butt;stroke-linejoin:miter;stroke-miterlimit:10;stroke-dasharray:none;stroke-dashoffset:0" />
    <path
       d="m 470.63981,250.97214 v 0 c -0.32314,-2.21892 -1.3195,-3.80771 -2.98908,-4.76637 -1.66958,-0.95866 -3.53843,-1.42183 -5.60655,-1.38952 -2.06812,0.0323 -3.8508,0.40393 -5.34803,1.11485 -1.49723,0.71092 -2.22431,1.63726 -2.18122,2.77904 0.0646,0.6032 0.21004,1.0556 0.43624,1.3572 0.2262,0.3016 0.47933,0.56012 0.75939,0.77555 0.32314,0.21543 0.63013,0.53319 0.92096,0.95327 0.29083,0.42009 0.4901,1.08253 0.59782,1.98734 l 1.26026,12.18253 c 0.25852,2.28355 0.95327,4.37322 2.08428,6.26899 1.131,1.89578 2.62824,3.33377 4.4917,4.31397 1.86346,0.9802 4.02314,1.2441 6.47904,0.7917 -0.754,1.42183 -1.49185,2.57977 -2.21354,3.4738 -0.72169,0.89403 -1.38413,1.37336 -1.98734,1.43799 -0.38777,0 -0.72169,-0.0969 -1.00175,-0.29083 -0.28006,-0.19389 -0.56012,-0.44163 -0.84017,-0.74323 -0.32314,-0.34469 -0.7163,-0.6786 -1.17948,-1.00175 -0.46317,-0.32314 -1.07176,-0.56012 -1.82576,-0.71092 -2.15429,-0.23697 -3.97467,0.3393 -5.46113,1.72882 -1.48646,1.38952 -2.07889,3.16143 -1.77729,5.31572 0.3016,1.31412 0.93712,2.40204 1.90655,3.26375 0.96943,0.86172 2.10044,1.3572 3.39301,1.48646 2.19738,0.17234 4.34629,-0.3393 6.44672,-1.53493 2.10044,-1.19563 4.09854,-2.87598 5.99432,-5.04105 1.89578,-2.16507 3.6246,-4.63712 5.18646,-7.41616 1.56186,-2.77904 2.88675,-5.66041 3.97467,-8.6441 1.08792,-2.9837 1.87424,-5.88122 2.35895,-8.69257 0.48472,-2.81135 0.6032,-5.35342 0.35546,-7.6262 -0.24774,-2.27278 -0.92096,-4.09316 -2.01965,-5.46113 -1.09869,-1.36798 -2.71441,-2.05196 -4.84716,-2.05196 -1.63726,0 -2.96215,0.57089 -3.97467,1.71266 -1.01252,1.14178 -1.45415,2.55284 -1.32489,4.23319 0.40932,2.54207 1.76652,4.3409 4.07161,5.39651 v 0 c 0.56012,0.25852 0.95327,0.74862 1.17948,1.47031 0.2262,0.72169 0.31776,1.56725 0.27467,2.53668 -0.0646,1.18486 -0.32314,2.44512 -0.77555,3.78079 -0.4524,1.33566 -1.00175,2.47205 -1.64803,3.40917 -0.64629,0.93712 -1.29258,1.39491 -1.93886,1.37336 -0.43086,-0.0215 -0.80247,-0.3016 -1.11485,-0.84017 -0.31237,-0.53857 -0.53319,-1.48646 -0.66245,-2.84367 z"
       data-paper-data="{&quot;glyphName&quot;:&quot;y&quot;,&quot;glyphIndex&quot;:10,&quot;lastGlyphOfWord&quot;:true,&quot;word&quot;:2,&quot;line&quot;:2,&quot;lastGlyphOfSecondLine&quot;:true}"
       id="path1089"
       inkscape:connector-curvature="0"
       style="font-family:none;mix-blend-mode:normal;fill:#f0effe;fill-rule:nonzero;stroke:none;stroke-width:1;stroke-linecap:butt;stroke-linejoin:miter;stroke-miterlimit:10;stroke-dasharray:none;stroke-dashoffset:0" />
    <path
       style="font-family:none;mix-blend-mode:normal;fill:#00abd7;fill-opacity:1;fill-rule:evenodd;stroke:none;stroke-width:1;stroke-linecap:butt;stroke-linejoin:miter;stroke-miterlimit:10;stroke-dasharray:none;stroke-dashoffset:0"
       inkscape:connector-curvature="0"
       id="path1093"
       d="m 65,234.9997 c 0,31.03488 25.2983,56.33278 56.47978,56.33278 15.14994,0 29.56388,-6.02998 40.15384,-16.76693 l 5.73598,-6.03098 -19.56192,-16.61994 -2.64699,3.23499 c -6.03098,6.91297 -14.56194,10.88496 -23.68091,10.88496 -17.20893,0 -31.18148,-13.82595 -31.18148,-31.03488 0,-17.06193 13.97255,-31.03488 31.18148,-31.03488 8.97197,0 17.50293,3.82499 23.38591,10.73696 l 2.79499,3.08899 19.26792,-16.76693 -3.67699,-3.82499 c -0.735,-0.735 -1.32399,-1.46999 -2.05899,-2.05899 -10.44296,-10.58996 -24.7099,-16.47294 -39.71285,-16.47294 v 8.23697 c 12.50195,0 24.5629,4.85298 33.53487,13.67795 l -6.76597,5.73698 c -7.20697,-6.76597 -16.76693,-10.58996 -26.7689,-10.58996 -20.29692,0 -37.06476,15.44294 -39.12395,35.15286 H 64.99999 Z m 56.47978,48.09581 c -25.1511,0 -45.88982,-19.41492 -47.94891,-43.97783 h 8.82497 c 2.05919,19.70992 18.82703,35.15286 39.12395,35.15286 10.14896,0 19.85592,-3.82399 27.06389,-10.88396 l 6.76497,5.73598 c -8.97197,8.97297 -21.17992,13.97295 -33.82887,13.97295 z" />
    <path
       style="font-family:none;mix-blend-mode:normal;fill:#f0effe;fill-rule:evenodd;stroke:none;stroke-width:1;stroke-linecap:butt;stroke-linejoin:miter;stroke-miterlimit:10;stroke-dasharray:none;stroke-dashoffset:0"
       inkscape:connector-curvature="0"
       id="path1095"
       d="m 101.27586,187.04589 c -6.23678,2.63799 -11.75985,6.36198 -16.56934,11.17096 -4.80938,4.80998 -8.53307,10.33296 -11.17096,16.56894 -1.74019,4.11498 -2.92599,8.35297 -3.55739,12.71595 h 2.18019 c 0.61593,-4.07265 1.73699,-8.0313 3.36319,-11.87595 2.52866,-5.97798 6.09858,-11.27262 10.70976,-15.88394 4.61118,-4.61098 9.90596,-8.18097 15.88454,-10.70996 5.12598,-2.16799 10.45396,-3.43799 15.98394,-3.81099 v -2.16099 c -5.82198,0.376 -11.42996,1.70399 -16.82393,3.98598 z" />
    <path
       style="font-family:none;mix-blend-mode:normal;fill:#f0effe;fill-rule:evenodd;stroke:none;stroke-width:1;stroke-linecap:butt;stroke-linejoin:miter;stroke-miterlimit:10;stroke-dasharray:none;stroke-dashoffset:0"
       inkscape:connector-curvature="0"
       id="path1097"
       d="m 173.69458,235.0767 c 0,-7.06997 -1.36599,-13.83295 -4.09698,-20.29092 -1.182,-2.79299 -2.58099,-5.44398 -4.19798,-7.95097 l -0.222,0.193 -0.85,0.739 -0.573,0.499 c 1.47999,2.32599 2.76499,4.77998 3.85698,7.35997 2.61799,6.18898 3.92698,12.67295 3.92698,19.45092 0,6.77897 -1.30899,13.26195 -3.92698,19.45092 -1.004,2.37399 -2.17299,4.64098 -3.50499,6.79897 l 0.3,0.255 0.859,0.73 0.502,0.427 c 1.46299,-2.33499 2.73899,-4.79198 3.82999,-7.37097 2.73099,-6.45697 4.09698,-13.22095 4.09698,-20.29092 z" />
    <path
       d="m 234.45383,211.02591 v 0 c 0.17234,-0.19389 0.32314,-0.36623 0.4524,-0.51703 0.28006,-0.34469 0.54934,-0.61936 0.80786,-0.82402 0.25852,-0.20466 0.56012,-0.30699 0.9048,-0.30699 0.49549,0 0.89942,0.17234 1.21179,0.51703 0.31237,0.34469 0.40393,0.88326 0.27467,1.61572 -1.09869,4.37322 -3.31761,7.80393 -6.65677,10.29214 -3.33916,2.48821 -7.19534,3.71077 -11.56856,3.66768 -5.23493,-0.21543 -9.55968,-1.60495 -12.97423,-4.16856 -3.41456,-2.56361 -5.90815,-5.79505 -7.48078,-9.69432 -1.57263,-3.89927 -2.19738,-7.94396 -1.87424,-12.13406 0.32314,-4.1901 1.61572,-8.01936 3.87773,-11.48777 2.26201,-3.46841 5.55207,-5.96386 9.75895,-7.75546 4.61913,-1.96717 10.10857,-2.70475 15.76943,-0.93712 1.7404,0.54345 6.29365,4.42168 7.7478,5.41265 1.45415,0.99098 0.92802,11.04018 1.35888,12.44047 -8.87041,-10.36079 -24.9499,-12.48876 -25.07,3.31281 0.12926,3.31761 1.02329,6.11819 2.6821,8.40175 1.65881,2.28355 3.73231,3.94774 6.22052,4.99258 2.48821,1.04483 5.03566,1.3572 7.64236,0.93712 2.6067,-0.42009 4.91179,-1.67496 6.91528,-3.76463 z"
       data-paper-data="{&quot;glyphName&quot;:&quot;C&quot;,&quot;glyphIndex&quot;:0,&quot;firstGlyphOfWord&quot;:true,&quot;word&quot;:1,&quot;line&quot;:1,&quot;firstGlyphOfFirstLine&quot;:true}"
       id="path1069"
       inkscape:connector-curvature="0"
       style="font-family:none;mix-blend-mode:normal;fill:#00abd7;fill-opacity:1;fill-rule:nonzero;stroke:none;stroke-width:1;stroke-linecap:butt;stroke-linejoin:miter;stroke-miterlimit:10;stroke-dasharray:none;stroke-dashoffset:0"
       sodipodi:nodetypes="cccssscsccssssscccccccc" />
  </g>
</svg>
