<?xml version="1.0" encoding="UTF-8" standalone="no"?>
<!-- Created with Inkscape (http://www.inkscape.org/) -->

<svg
   xmlns:dc="http://purl.org/dc/elements/1.1/"
   xmlns:cc="http://creativecommons.org/ns#"
   xmlns:rdf="http://www.w3.org/1999/02/22-rdf-syntax-ns#"
   xmlns:svg="http://www.w3.org/2000/svg"
   xmlns="http://www.w3.org/2000/svg"
   xmlns:sodipodi="http://sodipodi.sourceforge.net/DTD/sodipodi-0.dtd"
   xmlns:inkscape="http://www.inkscape.org/namespaces/inkscape"
   version="1.1"
   id="svg83"
   width="180.04396"
   height="180.04396"
   viewBox="0 0 180.04396 180.04396"
   sodipodi:docname="whatsapp.svg"
   inkscape:version="0.92.3 (2405546, 2018-03-11)">
  <metadata
     id="metadata89">
    <rdf:RDF>
      <cc:Work
         rdf:about="">
        <dc:format>image/svg+xml</dc:format>
        <dc:type
           rdf:resource="http://purl.org/dc/dcmitype/StillImage" />
        <dc:title></dc:title>
      </cc:Work>
    </rdf:RDF>
  </metadata>
  <defs
     id="defs87" />
  <sodipodi:namedview
     pagecolor="#ffffff"
     bordercolor="#666666"
     borderopacity="1"
     objecttolerance="10"
     gridtolerance="10"
     guidetolerance="10"
     inkscape:pageopacity="0"
     inkscape:pageshadow="2"
     inkscape:window-width="1366"
     inkscape:window-height="743"
     id="namedview85"
     showgrid="false"
     inkscape:zoom="0.54100098"
     inkscape:cx="-381.34745"
     inkscape:cy="198.48262"
     inkscape:window-x="0"
     inkscape:window-y="0"
     inkscape:window-maximized="1"
     inkscape:current-layer="svg83" />
  <path
     style="fill:#000000;stroke-width:0.34960938"
     d="m 6.7545487,173.28617 c 0.086,-0.24035 2.72686,-9.84122 5.8686603,-21.33525 l 5.71236,-20.89824 -2.32954,-4.79805 c -5.76753,-11.87908 -8.1886103,-21.63441 -8.5394703,-34.408266 -0.28931,-10.53303 0.86746,-18.82852 3.9149903,-28.07533 4.46605,-13.55091 11.09847,-24.11124 21.45272,-34.15764 12.46971,-12.098945 27.45203,-19.562991 45.15909,-22.4978075 4.7034,-0.779554 14.68921,-1.041966 20.14239,-0.529312 31.307841,2.943252 57.971441,23.0112095 69.708461,52.4650295 1.83712,4.61021 3.56157,10.86361 4.59551,16.66479 1.07819,6.04938 1.18057,20.13612 0.19015,26.162356 -6.1487,37.41214 -35.48896,65.67336 -72.785921,70.10912 -4.46795,0.53138 -14.36246,0.52967 -18.87891,-0.003 -9.41373,-1.1108 -21.69148,-4.81627 -28.42136,-8.57768 -0.85707,-0.47914 -1.7459,-0.87107 -1.97518,-0.87107 -0.22928,0 -10.00289,2.51669 -21.71915,5.59263 -11.71625,3.07594 -21.5157703,5.59313 -21.7766903,5.59375 -0.26093,7e-4 -0.40408,-0.19553 -0.31811,-0.43589 z M 99.981659,157.78065 c 29.191271,-3.8637 52.933551,-26.68276 58.452671,-56.17973 0.92629,-4.950586 1.27697,-14.787296 0.70159,-19.680186 -1.34493,-11.43685 -5.08174,-21.70101 -11.24773,-30.89496 -15.79781,-23.55566 -43.52932,-34.942693 -71.468071,-29.346022 -23.29509,4.666462 -43.408,22.281572 -51.1814,44.825262 -6.81152,19.75415 -4.59118,41.204576 6.06802,58.622466 1.11789,1.82671 2.0224,3.55728 2.01002,3.8457 -0.0124,0.28843 -1.5292,6.01698 -3.37073,12.73012 -1.84152,6.71314 -3.28791,12.26602 -3.2142,12.33974 0.0737,0.0737 3.96816,-0.87554 8.65433,-2.10945 4.68616,-1.23391 10.5065,-2.75412 12.93409,-3.37825 l 4.41381,-1.13476 2.57023,1.50109 c 13.59968,7.94264 28.8115,10.95896 44.67737,8.85898 z m 6.958891,-28.96578 c -3.06179,-0.64105 -8.725851,-2.58773 -13.955641,-4.79643 -13.2518,-5.59663 -25.63677,-16.43268 -36.49302,-31.929046 -3.13319,-4.47237 -5.62852,-9.26012 -7.01521,-13.45997 -0.88003,-2.66534 -0.98345,-3.47622 -1.00324,-7.86621 -0.024,-5.32718 0.55348,-7.95006 2.50174,-11.3623 1.42858,-2.50206 4.40499,-6.03271 6.04452,-7.17008 1.43181,-0.99327 1.71326,-1.05155 5.60947,-1.16157 5.67233,-0.16017 5.2742,-0.5967 10.13044,11.10761 2.10942,5.08405 3.83532,9.53627 3.83532,9.89383 0,1.05611 -0.97455,2.6597 -4.07082,6.6984 -1.60675,2.09582 -2.92137,4.15185 -2.92137,4.56895 0,1.76789 5.31487,9.23805 9.80156,13.7763 5.01357,5.071166 10.00873,8.483396 17.33078,11.838776 4.227611,1.93732 4.426481,1.92329 6.661871,-0.47017 1.05796,-1.13277 3.03692,-3.51813 4.39771,-5.30079 2.73489,-3.582776 3.34528,-3.925946 5.81037,-3.266636 2.10368,0.562646 17.93822,8.297136 18.49038,9.031756 0.95066,1.26477 0.14911,7.54491 -1.38135,10.8229 -1.38997,2.97709 -6.7194,6.93389 -11.46642,8.51317 -2.92901,0.97444 -8.94967,1.23446 -12.30709,0.53151 z"
     id="path184"
     inkscape:connector-curvature="0" />
</svg>
